<svg xmlns="http://www.w3.org/2000/svg" viewBox="0 0 251.17 251"><defs><style>.cls-1{fill:#f0f;stroke:#000;stroke-miterlimit:10;}.cls-2{fill:#fff;}</style></defs><title>Fichier 5</title><g id="Calque_2" data-name="Calque 2"><g id="Calque_1-2" data-name="Calque 1"><rect class="cls-1" x="0.5" y="0.5" width="250" height="250" rx="50.01" ry="50.01"/><path class="cls-2" d="M2.12,109.71V62.47H8.54L33.35,99.56V62.47h6v47.24H32.93L8.12,72.59v37.13Z"/><path class="cls-2" d="M46.95,92.6q0-9.51,5.29-14.08A15.92,15.92,0,0,1,63,74.71a15.36,15.36,0,0,1,11.54,4.63Q79,84,79,92.12q0,6.61-2,10.39a14,14,0,0,1-5.77,5.88A16.8,16.8,0,0,1,63,110.48a15.38,15.38,0,0,1-11.62-4.61Q46.95,101.27,46.95,92.6Zm6,0q0,6.57,2.87,9.84a9.55,9.55,0,0,0,14.41,0q2.87-3.29,2.87-10,0-6.35-2.88-9.62a9.56,9.56,0,0,0-14.39,0Q52.91,86,52.91,92.6Z"/><path class="cls-2" d="M108.24,109.71v-5a12.53,12.53,0,0,1-10.86,5.8,13.84,13.84,0,0,1-5.66-1.16,9.31,9.31,0,0,1-3.9-2.92,10.92,10.92,0,0,1-1.79-4.3,29.41,29.41,0,0,1-.35-5.41V75.49h5.8v19a33.78,33.78,0,0,0,.35,6.12,6,6,0,0,0,2.32,3.59,7.18,7.18,0,0,0,4.38,1.31,9.55,9.55,0,0,0,4.9-1.34,7.43,7.43,0,0,0,3.24-3.64,18.28,18.28,0,0,0,1-6.69V75.49h5.8v34.22Z"/><path class="cls-2" d="M132,109.71,119,75.49h6.12L132.48,96q1.19,3.32,2.19,6.9.77-2.71,2.16-6.51l7.61-20.88h6l-13,34.22Z"/><path class="cls-2" d="M178.95,98.69l6,.74a14.63,14.63,0,0,1-5.25,8.15,15.79,15.79,0,0,1-9.8,2.9q-7.51,0-11.91-4.62t-4.4-13q0-8.64,4.45-13.41a15.05,15.05,0,0,1,11.54-4.77,14.63,14.63,0,0,1,11.21,4.67q4.35,4.67,4.35,13.15,0,.52,0,1.55H159.58q.32,5.64,3.19,8.64a9.5,9.5,0,0,0,7.15,3,8.88,8.88,0,0,0,5.45-1.68A11.13,11.13,0,0,0,178.95,98.69Zm-19-9.38H179a11.59,11.59,0,0,0-2.19-6.48,8.89,8.89,0,0,0-7.19-3.35,9.22,9.22,0,0,0-6.72,2.67A10.58,10.58,0,0,0,159.9,89.31Z"/><path class="cls-2" d="M192.1,109.71V62.47h5.8v47.24Z"/><path class="cls-2" d="M206.76,109.71V62.47h5.8v47.24Z"/><path class="cls-2" d="M245,98.69l6,.74a14.63,14.63,0,0,1-5.25,8.15,15.79,15.79,0,0,1-9.8,2.9q-7.51,0-11.91-4.62t-4.4-13q0-8.64,4.45-13.41a15.05,15.05,0,0,1,11.54-4.77,14.63,14.63,0,0,1,11.21,4.67q4.35,4.67,4.35,13.15,0,.52,0,1.55H225.61q.32,5.64,3.19,8.64a9.5,9.5,0,0,0,7.15,3A8.88,8.88,0,0,0,241.4,104,11.13,11.13,0,0,0,245,98.69Zm-19-9.38H245a11.59,11.59,0,0,0-2.19-6.48,8.89,8.89,0,0,0-7.19-3.35,9.22,9.22,0,0,0-6.72,2.67A10.58,10.58,0,0,0,225.94,89.31Z"/><path class="cls-2" d="M17,188.91V141.67H37.91q6.32,0,9.6,1.27a10.5,10.5,0,0,1,5.25,4.5,13.42,13.42,0,0,1,2,7.12A11.88,11.88,0,0,1,51.48,163q-3.26,3.45-10.05,4.38a16.21,16.21,0,0,1,3.77,2.35,32.5,32.5,0,0,1,5.19,6.28l8.22,12.86H50.74l-6.25-9.83q-2.74-4.25-4.51-6.51a14.19,14.19,0,0,0-3.17-3.16,9.38,9.38,0,0,0-2.85-1.26,18.78,18.78,0,0,0-3.48-.23H23.21v21Zm6.25-26.39H36.65a20.16,20.16,0,0,0,6.7-.89A7.13,7.13,0,0,0,47,158.8a7.67,7.67,0,0,0,1.26-4.24A7,7,0,0,0,45.85,149q-2.43-2.16-7.69-2.16h-15Z"/><path class="cls-2" d="M87.22,177.89l6,.74A14.63,14.63,0,0,1,88,186.78a15.79,15.79,0,0,1-9.8,2.9q-7.51,0-11.91-4.62t-4.4-13q0-8.64,4.45-13.41a15.05,15.05,0,0,1,11.54-4.77,14.63,14.63,0,0,1,11.21,4.67q4.35,4.67,4.35,13.15,0,.52,0,1.55H67.85q.32,5.64,3.19,8.64a9.5,9.5,0,0,0,7.15,3,8.88,8.88,0,0,0,5.45-1.68A11.13,11.13,0,0,0,87.22,177.89Zm-19-9.38H87.28A11.59,11.59,0,0,0,85.09,162a8.89,8.89,0,0,0-7.19-3.35,9.22,9.22,0,0,0-6.72,2.67A10.58,10.58,0,0,0,68.17,168.51Z"/><path class="cls-2" d="M122.83,176.38l5.7.74a14.79,14.79,0,0,1-4.79,9.23,13.94,13.94,0,0,1-9.46,3.34,14.7,14.7,0,0,1-11.3-4.59q-4.27-4.59-4.27-13.17a23.82,23.82,0,0,1,1.84-9.7,12.81,12.81,0,0,1,5.59-6.24,16.6,16.6,0,0,1,8.17-2.08,14.2,14.2,0,0,1,9.12,2.82,12.93,12.93,0,0,1,4.54,8l-5.64.87a9.36,9.36,0,0,0-2.85-5.19,7.38,7.38,0,0,0-4.95-1.74,9,9,0,0,0-7.12,3.14q-2.74,3.14-2.74,9.94t2.64,10a8.6,8.6,0,0,0,6.9,3.13,8.13,8.13,0,0,0,5.7-2.09Q122.21,180.73,122.83,176.38Z"/><path class="cls-2" d="M156.92,177.89l6,.74a14.63,14.63,0,0,1-5.25,8.15,15.79,15.79,0,0,1-9.8,2.9q-7.51,0-11.91-4.62t-4.4-13q0-8.64,4.45-13.41a15.05,15.05,0,0,1,11.54-4.77,14.63,14.63,0,0,1,11.21,4.67q4.35,4.67,4.35,13.15,0,.52,0,1.55H137.55q.32,5.64,3.19,8.64a9.5,9.5,0,0,0,7.15,3,8.88,8.88,0,0,0,5.45-1.68A11.13,11.13,0,0,0,156.92,177.89Zm-19-9.38H157A11.59,11.59,0,0,0,154.8,162a8.89,8.89,0,0,0-7.19-3.35,9.22,9.22,0,0,0-6.72,2.67A10.58,10.58,0,0,0,137.88,168.51Z"/><path class="cls-2" d="M182.87,183.72l.84,5.12a21.52,21.52,0,0,1-4.38.52,9.92,9.92,0,0,1-4.9-1,5.59,5.59,0,0,1-2.45-2.63q-.71-1.63-.71-6.85V159.2H167v-4.51h4.25v-8.48l5.77-3.48v12h5.83v4.51H177v20a10.09,10.09,0,0,0,.31,3.19,2.41,2.41,0,0,0,1,1.13,3.86,3.86,0,0,0,2,.42A18.87,18.87,0,0,0,182.87,183.72Z"/><path class="cls-2" d="M201.2,183.72l.84,5.12a21.52,21.52,0,0,1-4.38.52,9.92,9.92,0,0,1-4.9-1,5.59,5.59,0,0,1-2.45-2.63q-.71-1.63-.71-6.85V159.2h-4.25v-4.51h4.25v-8.48l5.77-3.48v12h5.83v4.51h-5.83v20a10.09,10.09,0,0,0,.31,3.19,2.41,2.41,0,0,0,1,1.13,3.86,3.86,0,0,0,2,.42A18.87,18.87,0,0,0,201.2,183.72Z"/><path class="cls-2" d="M230.3,177.89l6,.74a14.63,14.63,0,0,1-5.25,8.15,15.79,15.79,0,0,1-9.8,2.9q-7.51,0-11.91-4.62t-4.4-13q0-8.64,4.45-13.41a15.05,15.05,0,0,1,11.54-4.77,14.63,14.63,0,0,1,11.21,4.67q4.35,4.67,4.35,13.15,0,.52,0,1.55H210.93q.32,5.64,3.19,8.64a9.5,9.5,0,0,0,7.15,3,8.88,8.88,0,0,0,5.45-1.68A11.13,11.13,0,0,0,230.3,177.89Zm-19-9.38h19.11a11.59,11.59,0,0,0-2.19-6.48,8.89,8.89,0,0,0-7.19-3.35,9.22,9.22,0,0,0-6.72,2.67A10.58,10.58,0,0,0,211.26,168.51Z"/></g></g></svg>